# xmcd CD database file
# Copyright (C) 1993-1998 Ti Kan
# 
# Track frame offsets:
#     150
#     49890
#     98115
#     102182
#     107685
#     116705
#     124400
#     128220
#     132185
#     136285
#     142657
#     148540
#     152505
#     157075
#     163275
#     169342
#     172012
#     187402
#     189990
#     198332
#     201647
#     204480
#     211262
#     216597
#     220965
#     231037
#     233917
#     243082
#     248097
#     253157
#     258922
#     271410
#     280290
# 
# Disc length: 4156 seconds
# 
# Revision: 1
# Processed by: cddbd v1.4b41PL1 Copyright (c) Steve Scherf et al.
# Submitted via: DiscPlay 4.0.4
# 
DISCID=08103a21
DTITLE=Leonard Berstein And The New York Philharmonic - The Royal Edition No
DTITLE=58 of 100
DYEAR=1900
DGENRE=
TTITLE0=Mussorgsky: Night on Bare Mountain
TTITLE1=Dukas: The Sorcerer's Apprentice
TTITLE2=Prokofiev: Peter and the Wolf, Op. 67
TTITLE3=Prokofiev: Peter and the Wolf, Op. 67
TTITLE4=Prokofiev: Peter and the Wolf, Op. 67
TTITLE5=Prokofiev: Peter and the Wolf, Op. 67
TTITLE6=Prokofiev: Peter and the Wolf, Op. 67
TTITLE7=Prokofiev: Peter and the Wolf, Op. 67
TTITLE8=Prokofiev: Peter and the Wolf, Op. 67
TTITLE9=Prokofiev: Peter and the Wolf, Op. 67
TTITLE10=Prokofiev: Peter and the Wolf, Op. 67
TTITLE11=Prokofiev: Peter and the Wolf, Op. 67
TTITLE12=Prokofiev: Peter and the Wolf, Op. 67
TTITLE13=Prokofiev: Peter and the Wolf, Op. 67
TTITLE14=Prokofiev: Peter and the Wolf, Op. 67
TTITLE15=Prokofiev: Peter and the Wolf, Op. 67
TTITLE16=Prokofiev: Peter and the Wolf, Op. 67
TTITLE17=Prokofiev: Peter and the Wolf, Op. 67
TTITLE18=Saint-Saens: Carnival of the Animals
TTITLE19=Saint-Saens: Carnival of the Animals
TTITLE20=Saint-Saens: Carnival of the Animals
TTITLE21=Saint-Saens: Carnival of the Animals
TTITLE22=Saint-Saens: Carnival of the Animals
TTITLE23=Saint-Saens: Carnival of the Animals
TTITLE24=Saint-Saens: Carnival of the Animals
TTITLE25=Saint-Saens: Carnival of the Animals
TTITLE26=Saint-Saens: Carnival of the Animals
TTITLE27=Saint-Saens: Carnival of the Animals
TTITLE28=Saint-Saens: Carnival of the Animals
TTITLE29=Saint-Saens: Carnival of the Animals
TTITLE30=Saint-Saens: Carnival of the Animals
TTITLE31=Saint-Saens: Carnival of the Animals
TTITLE32=Saint-Saens: Danse macabre
EXTD=
EXTT0=
EXTT1=
EXTT2=
EXTT3=
EXTT4=
EXTT5=
EXTT6=
EXTT7=
EXTT8=
EXTT9=
EXTT10=
EXTT11=
EXTT12=
EXTT13=
EXTT14=
EXTT15=
EXTT16=
EXTT17=
EXTT18=
EXTT19=
EXTT20=
EXTT21=
EXTT22=
EXTT23=
EXTT24=
EXTT25=
EXTT26=
EXTT27=
EXTT28=
EXTT29=
EXTT30=
EXTT31=
EXTT32=
PLAYORDER=
